<?xml version="1.0" encoding="UTF-8"?>
<svg id="Layer_2" data-name="Layer 2" xmlns="http://www.w3.org/2000/svg" viewBox="0 0 4000 2000">
  <defs>
    <style>
      .cls-1 {
        fill: #141414;
      }

      .cls-2 {
        fill: #eaeaea;
      }
    </style>
  </defs>
  <g id="Horizontal_Dark_BG">
    <rect class="cls-1" width="4000" height="2000"/>
    <g>
      <g>
        <path class="cls-2" d="M1566.18,990.64h100.96v145.79c-21.01,14.13-44.98,24.96-71.9,32.51-26.93,7.55-53.03,11.33-78.31,11.33-27.91,0-53.61-4.35-77.08-13.05-23.48-8.7-43.83-21.1-61.08-37.2-17.23-16.08-30.61-35.13-40.14-57.13-9.51-21.99-14.27-46.29-14.27-72.9s4.76-50.89,14.27-72.9c9.53-21.99,22.98-41.03,40.4-57.13,17.39-16.08,38-28.49,61.8-37.18,23.81-8.7,50-13.05,78.56-13.05,34.15,0,64.6,5.75,91.36,17.23,26.76,11.5,48.85,27.91,66.26,49.25l-74.38,65.51c-10.84-12.48-22.58-21.92-35.21-28.33-12.65-6.4-26.69-9.6-42.11-9.6-12.81,0-24.39,1.97-34.72,5.91-10.35,3.95-19.13,9.7-26.36,17.25-7.23,7.56-12.81,16.59-16.74,27.09-3.94,10.51-5.91,22.49-5.91,35.94s1.97,24.55,5.91,35.23c3.94,10.66,9.51,19.78,16.74,27.34,7.23,7.55,15.84,13.38,25.86,17.48,10.02,4.11,21.26,6.15,33.75,6.15,13.12,0,25.93-2.21,38.42-6.64,1.31-.46,2.62-.96,3.94-1.49v-87.41Z"/>
        <path class="cls-2" d="M2006.5,1082.24v90.14h-276.3v-71.42l124.61-115.26c7.88-7.55,13.71-14.11,17.48-19.69,3.78-5.59,6.32-10.59,7.65-15.03,1.31-4.43,1.97-8.61,1.97-12.55,0-8.54-2.8-15.19-8.38-19.95-5.59-4.76-13.96-7.14-25.12-7.14-10.18,0-19.86,2.7-29.06,8.12-9.18,5.42-16.41,13.38-21.66,23.89l-87.67-43.83c12.47-23.64,31.19-42.84,56.14-57.62,24.95-14.77,55.98-22.16,93.09-22.16,27.25,0,51.39,4.43,72.41,13.29,21.01,8.87,37.43,21.34,49.25,37.43,11.81,16.1,17.74,35.14,17.74,57.14,0,11.17-1.41,22.33-4.2,33.49-2.79,11.17-8.45,22.91-16.99,35.21-8.54,12.32-21.18,26.03-37.93,41.13l-49.22,44.81h116.21Z"/>
        <path class="cls-2" d="M2299.55,990.64h100.96v145.79c-21.01,14.13-44.98,24.96-71.9,32.51-26.93,7.55-53.03,11.33-78.31,11.33-27.91,0-53.61-4.35-77.08-13.05-23.48-8.7-43.83-21.1-61.08-37.2-17.23-16.08-30.61-35.13-40.14-57.13-9.53-21.99-14.27-46.29-14.27-72.9s4.74-50.89,14.27-72.9c9.53-21.99,22.98-41.03,40.39-57.13,17.4-16.08,38.01-28.49,61.81-37.18,23.8-8.7,50-13.05,78.56-13.05,34.15,0,64.6,5.75,91.36,17.23,26.76,11.5,48.84,27.91,66.26,49.25l-74.38,65.51c-10.84-12.48-22.58-21.92-35.21-28.33-12.65-6.4-26.69-9.6-42.12-9.6-12.81,0-24.38,1.97-34.72,5.91-10.33,3.95-19.13,9.7-26.34,17.25-7.23,7.56-12.81,16.59-16.74,27.09-3.94,10.51-5.91,22.49-5.91,35.94s1.97,24.55,5.91,35.23c3.94,10.66,9.51,19.78,16.74,27.34,7.21,7.55,15.84,13.38,25.86,17.48,10.02,4.11,21.26,6.15,33.75,6.15,13.12,0,25.93-2.21,38.42-6.64,1.31-.46,2.62-.96,3.94-1.49v-87.41Z"/>
        <polygon class="cls-2" points="2939.82 1084.72 2939.82 1172.39 2653.17 1172.39 2653.17 827.61 2933.41 827.61 2933.41 915.28 2767.43 915.28 2767.43 955.67 2913.22 955.67 2913.22 1039.4 2767.43 1039.4 2767.43 1084.72 2939.82 1084.72"/>
        <path class="cls-2" d="M3012.22,1172.38v-344.77h116.24v254.64h155.64v90.13h-271.87Z"/>
        <path class="cls-2" d="M3343.68,1172.38v-344.77h169.92c38.42,0,72.23,6.98,101.46,20.93,29.22,13.96,52.04,33.74,68.46,59.35,16.42,25.61,24.63,56.32,24.63,92.1s-8.21,66.08-24.63,91.86c-16.42,25.78-39.24,45.64-68.46,59.6-29.23,13.96-63.04,20.93-101.46,20.93h-169.92ZM3459.92,1081.76h48.76c16.41,0,30.78-3.12,43.1-9.36,12.31-6.23,21.92-15.51,28.81-27.83,6.9-12.31,10.34-27.17,10.34-44.57s-3.45-32.67-10.34-44.82c-6.9-12.14-16.5-21.34-28.81-27.58-12.31-6.23-26.68-9.36-43.1-9.36h-48.76v163.52Z"/>
      </g>
      <g>
        <path class="cls-2" d="M1037.73,819.74h-193.45c-4.55,0-8.75,2.43-11.02,6.36l-24.37,42.21c-4.9,8.48,1.22,19.09,11.02,19.09h56.06v-.03h122.72c4.55,0,8.75,2.43,11.02,6.36l57.68,99.9c2.27,3.94,2.27,8.79,0,12.72l-57.68,99.91c-2.27,3.94-6.47,6.36-11.02,6.36h-51.98v.19h-277.53c-4.55,0-8.75,2.43-11.02,6.36l-24.24,41.99c-4.9,8.48,1.22,19.09,11.02,19.09h392.8c4.55,0,8.75-2.43,11.02-6.36l96.73-167.54c2.27-3.94,2.27-8.79,0-12.72l-96.73-167.54c-2.27-3.94-6.47-6.36-11.02-6.36Z"/>
        <path class="cls-2" d="M947.17,972.64l11.62,20.13c2.27,3.94,2.27,8.79,0,12.73l-12.62,21.86c-2.27,3.94-6.47,6.36-11.02,6.36h-241.09c-4.55,0-8.75,2.43-11.02,6.36l-58.85,101.94h0l-18.41,31.88c-2.27,3.94-6.47,6.36-11.02,6.36h-193.45c-4.55,0-8.75-2.43-11.02-6.36l-96.73-167.54c-2.27-3.94-2.27-8.79,0-12.72l96.73-167.54c2.27-3.94,6.47-6.36,11.02-6.36h392.8c9.8,0,15.92,10.6,11.02,19.09l-24.24,41.99c-2.27,3.94-6.47,6.36-11.02,6.36h-277.53v.19h-51.98c-4.55,0-8.75,2.43-11.02,6.36l-57.68,99.91c-2.27,3.94-2.27,8.79,0,12.72l57.68,99.9c2.27,3.94,6.47,6.36,11.02,6.36h115.36c4.55,0,8.75-2.43,11.02-6.36l18.67-32.34h.23l12.19-21.12c4.9-8.48-1.23-19.09-11.02-19.09h-77.99c-4.55,0-8.75-2.42-11.02-6.36l-12.62-21.86c-2.27-3.94-2.27-8.79,0-12.73l11.63-20.13c2.27-3.94,6.47-6.36,11.02-6.36h428.33c4.55,0,8.75,2.43,11.02,6.36Z"/>
      </g>
    </g>
  </g>
</svg>