<?xml version="1.0" encoding="UTF-8"?>
<svg id="Layer_2" data-name="Layer 2" xmlns="http://www.w3.org/2000/svg" viewBox="0 0 1517.92 639.8">
  <g id="Mascot">
    <g>
      <path d="M1323.67,0h-343.31c-8.07,0-15.52,4.3-19.56,11.29l-43.25,74.91c-8.69,15.05,2.17,33.87,19.56,33.87h99.48l.02-.05h217.76c8.07,0,15.52,4.3,19.56,11.29l102.36,177.29c4.03,6.99,4.03,15.59,0,22.58l-102.36,177.3c-4.03,6.99-11.49,11.29-19.56,11.29h-92.25v.34h-492.52c-8.07,0-15.52,4.3-19.56,11.29l-43.02,74.52c-8.69,15.05,2.17,33.87,19.56,33.87h697.08c8.07,0,15.52-4.3,19.56-11.29l171.66-297.32c4.03-6.99,4.03-15.59,0-22.58L1343.23,11.29c-4.03-6.99-11.49-11.29-19.56-11.29Z"/>
      <path d="M1191.55,317.17h0c.92.54.92,1.87,0,2.4h0s-.57.33-.57.33l-.48-.84c-.25-.43-.25-.95,0-1.38l.48-.84.57.33Z"/>
      <path d="M1191.55,317.17c.92.53.92,1.87,0,2.4h0s-.57.33-.57.33l-.48-.84c-.25-.43-.25-.95,0-1.38l.48-.84.57.33h0Z"/>
      <path d="M1162.95,271.35l20.63,35.73c4.03,6.99,4.03,15.6,0,22.58l-22.4,38.79c-4.03,6.99-11.49,11.29-19.56,11.29h-427.84c-8.07,0-15.52,4.3-19.56,11.29l-104.45,180.9h0l-32.67,56.58c-4.03,6.99-11.49,11.29-19.56,11.29H194.24c-8.07,0-15.52-4.3-19.56-11.29L3.03,331.19c-4.03-6.99-4.03-15.59,0-22.58L174.69,11.29c4.03-6.99,11.49-11.29,19.56-11.29h697.08c17.38,0,28.25,18.82,19.56,33.87l-43.02,74.52c-4.03,6.99-11.49,11.29-19.56,11.29h-492.52v.34h-92.25c-8.07,0-15.52,4.3-19.56,11.29l-102.36,177.3c-4.03,6.99-4.03,15.59,0,22.58l102.36,177.29c4.03,6.99,11.49,11.29,19.56,11.29h204.72c8.07,0,15.52-4.3,19.56-11.29l33.13-57.39h.41l21.64-37.48c8.69-15.05-2.17-33.87-19.56-33.87h-138.41c-8.07,0-15.52-4.3-19.56-11.29l-22.4-38.79c-4.03-6.99-4.03-15.6,0-22.58l20.63-35.73c4.03-6.99,11.49-11.29,19.56-11.29h760.13c8.07,0,15.52,4.3,19.56,11.29Z"/>
      <path d="M1191.55,317.17v2.4l-.57.33-.48-.84c-.25-.43-.25-.95,0-1.38l.48-.84.57.33Z"/>
    </g>
  </g>
</svg>