<svg width="2000" height="2000" viewBox="0 0 2000 2000" fill="none" xmlns="http://www.w3.org/2000/svg">
<path d="M1434.12 567.08H1170.2C1164 567.08 1158.27 570.39 1155.17 575.76L1121.92 633.35C1115.24 644.92 1123.59 659.39 1136.95 659.39H1213.43L1213.45 659.36H1380.85C1387.05 659.36 1392.78 662.67 1395.88 668.04L1474.57 804.33C1477.67 809.7 1477.67 816.32 1474.57 821.69L1395.88 957.99C1392.78 963.36 1387.05 966.67 1380.85 966.67H1309.93V966.93H931.31C925.11 966.93 919.38 970.24 916.28 975.61L883.21 1032.9C876.53 1044.47 884.88 1058.94 898.24 1058.94H1434.12C1440.32 1058.94 1446.05 1055.63 1449.15 1050.26L1581.11 821.7C1584.21 816.33 1584.21 809.71 1581.11 804.34L1449.15 575.78C1446.05 570.41 1440.32 567.1 1434.12 567.1V567.08Z" fill="#EAEAEA"/>
<path d="M1310.56 775.68L1326.42 803.15C1329.52 808.52 1329.52 815.14 1326.42 820.51L1309.2 850.33C1306.1 855.7 1300.37 859.01 1294.17 859.01H965.27C959.07 859.01 953.34 862.32 950.24 867.69L869.95 1006.75L844.84 1050.25C841.74 1055.62 836.01 1058.93 829.81 1058.93H565.89C559.69 1058.93 553.96 1055.62 550.86 1050.25L418.9 821.69C415.8 816.32 415.8 809.7 418.9 804.33L550.86 575.77C553.96 570.4 559.69 567.09 565.89 567.09H1101.77C1115.13 567.09 1123.48 581.56 1116.8 593.13L1083.73 650.42C1080.63 655.79 1074.9 659.1 1068.7 659.1H690.08V659.36H619.16C612.96 659.36 607.23 662.67 604.13 668.04L525.44 804.34C522.34 809.71 522.34 816.33 525.44 821.7L604.13 957.99C607.23 963.36 612.96 966.67 619.16 966.67H776.54C782.74 966.67 788.47 963.36 791.57 957.99L817.04 913.87H817.36L833.99 885.06C840.67 873.49 832.32 859.02 818.96 859.02H712.56C706.36 859.02 700.63 855.71 697.53 850.34L680.31 820.52C677.21 815.15 677.21 808.53 680.31 803.16L696.17 775.69C699.27 770.32 705 767.01 711.2 767.01H1295.54C1301.74 767.01 1307.47 770.32 1310.57 775.69L1310.56 775.68Z" fill="#EAEAEA"/>
<path d="M338.95 1300.98H409.2V1402.42C394.58 1412.25 377.9 1419.79 359.17 1425.04C340.43 1430.29 322.27 1432.92 304.68 1432.92C285.26 1432.92 267.38 1429.89 251.05 1423.84C234.71 1417.79 220.55 1409.16 208.55 1397.96C196.56 1386.77 187.25 1373.52 180.62 1358.21C174 1342.91 170.69 1326 170.69 1307.49C170.69 1288.98 174 1272.08 180.62 1256.77C187.25 1241.47 196.61 1228.22 208.73 1217.02C220.83 1205.83 235.17 1197.2 251.73 1191.15C268.3 1185.1 286.52 1182.07 306.39 1182.07C330.15 1182.07 351.34 1186.07 369.96 1194.06C388.58 1202.06 403.95 1213.48 416.06 1228.33L364.31 1273.91C356.77 1265.23 348.6 1258.66 339.81 1254.2C331.01 1249.75 321.24 1247.52 310.51 1247.52C301.6 1247.52 293.54 1248.89 286.35 1251.63C279.15 1254.38 273.04 1258.38 268.01 1263.63C262.98 1268.89 259.1 1275.17 256.36 1282.48C253.62 1289.79 252.25 1298.13 252.25 1307.49C252.25 1316.85 253.62 1324.57 256.36 1332C259.1 1339.42 262.98 1345.76 268.01 1351.02C273.04 1356.27 279.03 1360.33 286 1363.18C292.97 1366.04 300.79 1367.46 309.48 1367.46C318.61 1367.46 327.52 1365.92 336.21 1362.84C337.12 1362.52 338.03 1362.17 338.95 1361.8V1300.98Z" fill="#EAEAEA"/>
<path d="M645.32 1364.72V1427.44H453.07V1377.75L539.77 1297.55C545.25 1292.3 549.31 1287.73 551.93 1283.85C554.56 1279.96 556.33 1276.48 557.25 1273.39C558.16 1270.31 558.62 1267.4 558.62 1264.66C558.62 1258.72 556.67 1254.09 552.79 1250.78C548.9 1247.47 543.08 1245.81 535.31 1245.81C528.23 1245.81 521.49 1247.69 515.09 1251.46C508.7 1255.23 503.67 1260.77 500.02 1268.08L439.02 1237.58C447.7 1221.13 460.72 1207.77 478.08 1197.49C495.44 1187.21 517.03 1182.07 542.85 1182.07C561.81 1182.07 578.61 1185.15 593.23 1191.32C607.85 1197.49 619.27 1206.17 627.5 1217.36C635.72 1228.56 639.84 1241.81 639.84 1257.12C639.84 1264.89 638.86 1272.66 636.92 1280.42C634.98 1288.19 631.04 1296.36 625.1 1304.92C619.16 1313.49 610.36 1323.03 598.71 1333.54L564.46 1364.72H645.32Z" fill="#EAEAEA"/>
<path d="M849.22 1300.98H919.47V1402.42C904.85 1412.25 888.17 1419.79 869.44 1425.04C850.7 1430.29 832.54 1432.92 814.95 1432.92C795.53 1432.92 777.65 1429.89 761.32 1423.84C744.98 1417.79 730.82 1409.16 718.82 1397.96C706.83 1386.77 697.52 1373.52 690.89 1358.21C684.26 1342.91 680.96 1326 680.96 1307.49C680.96 1288.98 684.26 1272.08 690.89 1256.77C697.52 1241.47 706.88 1228.22 718.99 1217.02C731.1 1205.83 745.44 1197.2 762 1191.15C778.56 1185.1 796.79 1182.07 816.66 1182.07C840.42 1182.07 861.61 1186.07 880.23 1194.06C898.85 1202.06 914.21 1213.48 926.33 1228.33L874.58 1273.91C867.04 1265.23 858.87 1258.66 850.08 1254.2C841.28 1249.75 831.51 1247.52 820.77 1247.52C811.86 1247.52 803.81 1248.89 796.61 1251.63C789.42 1254.38 783.3 1258.38 778.28 1263.63C773.25 1268.89 769.37 1275.17 766.63 1282.48C763.89 1289.79 762.52 1298.13 762.52 1307.49C762.52 1316.85 763.89 1324.57 766.63 1332C769.37 1339.42 773.25 1345.76 778.28 1351.02C783.3 1356.27 789.3 1360.33 796.27 1363.18C803.24 1366.04 811.06 1367.46 819.75 1367.46C828.88 1367.46 837.79 1365.92 846.48 1362.84C847.39 1362.52 848.3 1362.17 849.22 1361.8V1300.98Z" fill="#EAEAEA"/>
<path d="M1294.72 1366.44V1427.44H1095.27V1187.55H1290.26V1248.55H1174.77V1276.65H1276.21V1334.91H1174.77V1366.44H1294.72Z" fill="#EAEAEA"/>
<path d="M1345.09 1427.44V1187.55H1425.97V1364.72H1534.26V1427.43H1345.09V1427.44Z" fill="#EAEAEA"/>
<path d="M1575.72 1427.44V1187.55H1693.95C1720.68 1187.55 1744.21 1192.41 1764.55 1202.11C1784.88 1211.82 1800.76 1225.58 1812.18 1243.4C1823.6 1261.22 1829.31 1282.58 1829.31 1307.48C1829.31 1332.38 1823.6 1353.46 1812.18 1371.39C1800.75 1389.33 1784.88 1403.15 1764.55 1412.86C1744.21 1422.57 1720.68 1427.42 1693.95 1427.42H1575.72V1427.44ZM1656.59 1364.38H1690.52C1701.94 1364.38 1711.94 1362.21 1720.51 1357.87C1729.08 1353.53 1735.76 1347.08 1740.56 1338.51C1745.36 1329.94 1747.76 1319.61 1747.76 1307.5C1747.76 1295.39 1745.36 1284.77 1740.56 1276.31C1735.76 1267.86 1729.08 1261.46 1720.51 1257.12C1711.94 1252.78 1701.95 1250.61 1690.52 1250.61H1656.59V1364.39V1364.38Z" fill="#EAEAEA"/>
</svg>
