<svg width="1660" height="866" viewBox="0 0 1660 866" fill="none" xmlns="http://www.w3.org/2000/svg">
<path d="M1264.12 0.0800781H1000.2C994 0.0800781 988.27 3.39007 985.17 8.76007L951.92 66.35C945.24 77.92 953.59 92.3901 966.95 92.3901H1043.43L1043.45 92.36H1210.85C1217.05 92.36 1222.78 95.67 1225.88 101.04L1304.57 237.33C1307.67 242.7 1307.67 249.32 1304.57 254.69L1225.88 390.99C1222.78 396.36 1217.05 399.67 1210.85 399.67H1139.93V399.93H761.31C755.11 399.93 749.38 403.24 746.28 408.61L713.21 465.9C706.53 477.47 714.88 491.94 728.24 491.94H1264.12C1270.32 491.94 1276.05 488.63 1279.15 483.26L1411.11 254.7C1414.21 249.33 1414.21 242.71 1411.11 237.34L1279.15 8.78009C1276.05 3.41009 1270.32 0.100037 1264.12 0.100037V0.0800781Z" fill="#EAEAEA"/>
<path d="M1140.56 208.68L1156.42 236.15C1159.52 241.52 1159.52 248.14 1156.42 253.51L1139.2 283.33C1136.1 288.7 1130.37 292.01 1124.17 292.01H795.27C789.07 292.01 783.34 295.32 780.24 300.69L699.95 439.75L674.84 483.25C671.74 488.62 666.01 491.93 659.81 491.93H395.89C389.69 491.93 383.96 488.62 380.86 483.25L248.9 254.69C245.8 249.32 245.8 242.7 248.9 237.33L380.86 8.77008C383.96 3.40008 389.69 0.0900879 395.89 0.0900879H931.77C945.13 0.0900879 953.48 14.5601 946.8 26.1301L913.73 83.42C910.63 88.79 904.9 92.1 898.7 92.1H520.08V92.36H449.16C442.96 92.36 437.23 95.67 434.13 101.04L355.44 237.34C352.34 242.71 352.34 249.33 355.44 254.7L434.13 390.99C437.23 396.36 442.96 399.67 449.16 399.67H606.54C612.74 399.67 618.47 396.36 621.57 390.99L647.04 346.87H647.36L663.99 318.06C670.67 306.49 662.32 292.02 648.96 292.02H542.56C536.36 292.02 530.63 288.71 527.53 283.34L510.31 253.52C507.21 248.15 507.21 241.53 510.31 236.16L526.17 208.69C529.27 203.32 535 200.01 541.2 200.01H1125.54C1131.74 200.01 1137.47 203.32 1140.57 208.69L1140.56 208.68Z" fill="#EAEAEA"/>
<path d="M168.95 733.98H239.2V835.42C224.58 845.25 207.9 852.79 189.17 858.04C170.43 863.29 152.27 865.92 134.68 865.92C115.26 865.92 97.3799 862.89 81.0499 856.84C64.7099 850.79 50.5499 842.16 38.5499 830.96C26.5599 819.77 17.2499 806.52 10.6199 791.21C3.99993 775.91 0.689941 759 0.689941 740.49C0.689941 721.98 3.99993 705.08 10.6199 689.77C17.2499 674.47 26.6099 661.22 38.7299 650.02C50.8299 638.83 65.1699 630.2 81.7299 624.15C98.2999 618.1 116.52 615.07 136.39 615.07C160.15 615.07 181.34 619.07 199.96 627.06C218.58 635.06 233.95 646.48 246.06 661.33L194.31 706.91C186.77 698.23 178.6 691.66 169.81 687.2C161.01 682.75 151.24 680.52 140.51 680.52C131.6 680.52 123.54 681.89 116.35 684.63C109.15 687.38 103.04 691.38 98.0099 696.63C92.9799 701.89 89.0999 708.17 86.3599 715.48C83.6199 722.79 82.2499 731.13 82.2499 740.49C82.2499 749.85 83.6199 757.57 86.3599 765C89.0999 772.42 92.9799 778.76 98.0099 784.02C103.04 789.27 109.03 793.33 116 796.18C122.97 799.04 130.79 800.46 139.48 800.46C148.61 800.46 157.52 798.92 166.21 795.84C167.12 795.52 168.03 795.17 168.95 794.8V733.98Z" fill="#EAEAEA"/>
<path d="M475.32 797.72V860.44H283.07V810.75L369.77 730.55C375.25 725.3 379.31 720.73 381.93 716.85C384.56 712.96 386.33 709.48 387.25 706.39C388.16 703.31 388.62 700.4 388.62 697.66C388.62 691.72 386.67 687.09 382.79 683.78C378.9 680.47 373.08 678.81 365.31 678.81C358.23 678.81 351.49 680.69 345.09 684.46C338.7 688.23 333.67 693.77 330.02 701.08L269.02 670.58C277.7 654.13 290.72 640.77 308.08 630.49C325.44 620.21 347.03 615.07 372.85 615.07C391.81 615.07 408.61 618.15 423.23 624.32C437.85 630.49 449.27 639.17 457.5 650.36C465.72 661.56 469.84 674.81 469.84 690.12C469.84 697.89 468.86 705.66 466.92 713.42C464.98 721.19 461.04 729.36 455.1 737.92C449.16 746.49 440.36 756.03 428.71 766.54L394.46 797.72H475.32Z" fill="#EAEAEA"/>
<path d="M679.22 733.98H749.47V835.42C734.85 845.25 718.17 852.79 699.44 858.04C680.7 863.29 662.54 865.92 644.95 865.92C625.53 865.92 607.65 862.89 591.32 856.84C574.98 850.79 560.82 842.16 548.82 830.96C536.83 819.77 527.52 806.52 520.89 791.21C514.26 775.91 510.96 759 510.96 740.49C510.96 721.98 514.26 705.08 520.89 689.77C527.52 674.47 536.88 661.22 548.99 650.02C561.1 638.83 575.44 630.2 592 624.15C608.56 618.1 626.79 615.07 646.66 615.07C670.42 615.07 691.61 619.07 710.23 627.06C728.85 635.06 744.21 646.48 756.33 661.33L704.58 706.91C697.04 698.23 688.87 691.66 680.08 687.2C671.28 682.75 661.51 680.52 650.77 680.52C641.86 680.52 633.81 681.89 626.61 684.63C619.42 687.38 613.3 691.38 608.28 696.63C603.25 701.89 599.37 708.17 596.63 715.48C593.89 722.79 592.52 731.13 592.52 740.49C592.52 749.85 593.89 757.57 596.63 765C599.37 772.42 603.25 778.76 608.28 784.02C613.3 789.27 619.3 793.33 626.27 796.18C633.24 799.04 641.06 800.46 649.75 800.46C658.88 800.46 667.79 798.92 676.48 795.84C677.39 795.52 678.3 795.17 679.22 794.8V733.98Z" fill="#EAEAEA"/>
<path d="M1124.72 799.44V860.44H925.27V620.55H1120.26V681.55H1004.77V709.65H1106.21V767.91H1004.77V799.44H1124.72Z" fill="#EAEAEA"/>
<path d="M1175.09 860.44V620.55H1255.97V797.72H1364.26V860.43H1175.09V860.44Z" fill="#EAEAEA"/>
<path d="M1405.72 860.44V620.55H1523.95C1550.68 620.55 1574.21 625.41 1594.55 635.11C1614.88 644.82 1630.76 658.58 1642.18 676.4C1653.6 694.22 1659.31 715.58 1659.31 740.48C1659.31 765.38 1653.6 786.46 1642.18 804.39C1630.75 822.33 1614.88 836.15 1594.55 845.86C1574.21 855.57 1550.68 860.42 1523.95 860.42H1405.72V860.44ZM1486.59 797.38H1520.52C1531.94 797.38 1541.94 795.21 1550.51 790.87C1559.08 786.53 1565.76 780.08 1570.56 771.51C1575.36 762.94 1577.76 752.61 1577.76 740.5C1577.76 728.39 1575.36 717.77 1570.56 709.31C1565.76 700.86 1559.08 694.46 1550.51 690.12C1541.94 685.78 1531.95 683.61 1520.52 683.61H1486.59V797.39V797.38Z" fill="#EAEAEA"/>
</svg>
